<?xml version="1.0" encoding="utf-8"?>
<!-- Generator: Adobe Illustrator 16.0.0, SVG Export Plug-In . SVG Version: 6.00 Build 0)  -->
<!DOCTYPE svg PUBLIC "-//W3C//DTD SVG 1.1//EN" "http://www.w3.org/Graphics/SVG/1.1/DTD/svg11.dtd">
<svg version="1.1" id="Layer_1" xmlns="http://www.w3.org/2000/svg" xmlns:xlink="http://www.w3.org/1999/xlink" x="0px" y="0px"
	 width="639.913px" height="164.689px" viewBox="0 0 639.913 164.689" enable-background="new 0 0 639.913 164.689"
	 xml:space="preserve">
<g>
	<g>
		<path fill="#991B1E" d="M257.165,143.797h-22.148V142.5c3.223-0.104,3.767-0.687,3.767-3.909v-15.975
			c0-3.188-0.478-3.772-3.421-3.909v-1.304h10.416v1.304c-2.943,0.102-3.391,0.687-3.391,4.146v14.779
			c0,3.838,1.373,4.626,6.105,4.626c5.241,0,6.888-0.959,7.884-5.21h1.302L257.165,143.797z"/>
		<path fill="#991B1E" d="M275.968,134.236h-9.15c-1.576,3.772-2.125,5.658-2.125,6.58c0,1.271,0.788,1.684,2.673,1.684v1.298
			h-8.331V142.5c2.089-0.242,2.948-0.824,3.736-2.781l8.917-22.315h1.474l7.782,19.334c2.089,5.144,2.842,5.726,5.21,5.726v1.335
			h-11.178v-1.335c2.43,0,3.188-0.411,3.188-1.474c0-0.892-0.173-1.474-0.789-3.053L275.968,134.236z M267.503,132.524h7.813
			l-3.802-10.114L267.503,132.524z"/>
		<path fill="#991B1E" d="M310.259,138.623l5.343-14.876c0.656-1.785,0.895-2.709,0.895-3.5c0-1.164-0.686-1.54-2.572-1.54v-1.304
			h8.332v1.304c-2.095,0-3.015,0.824-3.737,2.774l-8.606,22.66h-1.199l-6.583-19.505l-7.3,19.505h-1.199l-7.132-19.675
			c-1.611-4.423-2.435-5.725-5.21-5.725v-1.339h11.173v1.339c-2.328,0-3.152,0.341-3.152,1.505c0,0.585,0.209,1.373,0.55,2.401
			l5.209,15.873l4.214-11.862c0.62-1.784,1.306-3.324,1.683-4.559c-1.235-2.641-2.089-3.358-3.391-3.358v-1.339h10.486v1.339
			c-2.643,0-3.12,0.341-3.12,1.367c0,0.688,0.274,1.614,0.721,3.121L310.259,138.623z"/>
		<path fill="#991B1E" d="M358.204,117.403h0.955l0.311,7.884h-1.266c-0.996-3.978-4.081-6.443-8.128-6.443
			c-5.552,0-8.845,4.524-8.845,11.999c0,7.335,3.191,11.451,8.951,11.451c4.352,0,7.265-2.399,8.499-7.03h1.409v8.534h-1.201
			l-0.793-2.707c-2.43,2.059-5.312,3.051-8.702,3.051c-7.752,0-12.753-5.109-12.753-13.093c0-8.299,5.347-13.986,13.13-13.986
			c2.739,0,5.001,0.72,7.817,2.469L358.204,117.403z"/>
		<path fill="#991B1E" d="M393.396,130.807c0,7.437-6.308,13.334-14.264,13.334c-7.95,0-14.259-5.897-14.259-13.334
			c0-7.746,6.237-13.745,14.259-13.745S393.396,123.061,393.396,130.807z M388.937,130.909c0-7.335-3.771-11.961-9.805-11.961
			s-9.8,4.626-9.8,11.961c0,6.961,3.766,11.349,9.8,11.349C385.135,142.257,388.937,137.87,388.937,130.909z"/>
		<path fill="#991B1E" d="M411.41,131.013l7.575,9.117c1.234,1.51,2.673,2.061,4.696,2.369v1.298h-6.613l-8.397-10.764
			c-1.204-1.575-1.886-1.746-4.016-1.746v7.132c0,3.394,0.584,4.08,4.731,4.08v1.298h-12.104V142.5
			c3.225-0.104,3.772-0.687,3.772-3.909v-15.975c0-3.188-0.478-3.772-3.426-3.909v-1.304h10.761c6.278,0,9.908,2.468,9.908,6.618
			C418.299,127.654,416.209,130.193,411.41,131.013z M404.655,129.574h2.435c4.523,0,6.75-1.578,6.75-5.385
			c0-3.665-1.712-5.175-5.449-5.175h-3.151c-0.381,0-0.584,0.242-0.584,0.584V129.574z"/>
		<path fill="#991B1E" d="M435.597,131.803h-3.085v6.616c0,3.394,0.583,4.08,4.732,4.08v1.298h-12.104V142.5
			c3.223-0.104,3.772-0.687,3.772-3.909v-15.975c0-3.188-0.483-3.772-3.432-3.909v-1.304h10.767c6.277,0,9.906,2.468,9.906,6.618
			C446.154,128.82,443.241,131.803,435.597,131.803z M432.512,130.085h2.436c4.523,0,6.755-1.642,6.755-5.652
			c0-3.844-1.719-5.419-5.454-5.419h-3.153c-0.38,0-0.583,0.242-0.583,0.584V130.085z"/>
		<path fill="#991B1E" d="M478.47,130.807c0,7.437-6.309,13.334-14.26,13.334c-7.955,0-14.263-5.897-14.263-13.334
			c0-7.746,6.241-13.745,14.263-13.745C472.228,117.062,478.47,123.061,478.47,130.807z M474.011,130.909
			c0-7.335-3.767-11.961-9.801-11.961c-6.038,0-9.806,4.626-9.806,11.961c0,6.961,3.768,11.349,9.806,11.349
			C470.209,142.257,474.011,137.87,474.011,130.909z"/>
		<path fill="#991B1E" d="M496.483,131.013l7.574,9.117c1.236,1.51,2.674,2.061,4.697,2.369v1.298h-6.613l-8.397-10.764
			c-1.199-1.575-1.886-1.746-4.017-1.746v7.132c0,3.394,0.585,4.08,4.733,4.08v1.298h-12.104V142.5
			c3.229-0.104,3.771-0.687,3.771-3.909v-15.975c0-3.188-0.477-3.772-3.426-3.909v-1.304h10.768c6.271,0,9.901,2.468,9.901,6.618
			C503.372,127.654,501.283,130.193,496.483,131.013z M489.728,129.574h2.436c4.524,0,6.75-1.578,6.75-5.385
			c0-3.665-1.712-5.175-5.442-5.175h-3.158c-0.376,0-0.585,0.242-0.585,0.584V129.574z"/>
		<path fill="#991B1E" d="M525.402,134.236h-9.155c-1.575,3.772-2.125,5.658-2.125,6.58c0,1.271,0.789,1.684,2.675,1.684v1.298
			h-8.326V142.5c2.089-0.242,2.948-0.824,3.73-2.781l8.916-22.315h1.475l7.782,19.334c2.089,5.144,2.842,5.726,5.21,5.726v1.335
			h-11.178v-1.335c2.436,0,3.191-0.411,3.191-1.474c0-0.892-0.172-1.474-0.787-3.053L525.402,134.236z M516.934,132.524h7.818
			l-3.808-10.114L516.934,132.524z"/>
		<path fill="#991B1E" d="M560.421,123.951h-1.403c-0.31-3.976-1.886-5.073-5.859-5.073c-3.396,0-3.874,0.274-3.874,1.062v18.339
			c0,2.949,0.543,4.08,4.422,4.221v1.298h-12.958V142.5c3.874-0.141,4.459-1.271,4.459-4.221V119.94
			c0-0.788-0.448-1.062-3.359-1.062c-3.569,0-6.242,0.205-6.381,5.073h-1.271v-6.548h25.884L560.421,123.951z"/>
		<path fill="#991B1E" d="M570.76,137.322c0,4.521,0.519,5.073,3.741,5.178v1.298H563.39V142.5c3.229-0.104,3.771-0.687,3.771-4.942
			v-13.914c0-3.874-0.478-4.8-3.426-4.937v-1.304h10.421v1.304c-2.948,0.102-3.396,1.03-3.396,5.175V137.322z"/>
		<path fill="#991B1E" d="M606.923,130.807c0,7.437-6.309,13.334-14.258,13.334c-7.956,0-14.264-5.897-14.264-13.334
			c0-7.746,6.237-13.745,14.264-13.745C600.681,117.062,606.923,123.061,606.923,130.807z M602.465,130.909
			c0-7.335-3.768-11.961-9.8-11.961c-6.034,0-9.807,4.626-9.807,11.961c0,6.961,3.772,11.349,9.807,11.349
			C598.662,142.257,602.465,137.87,602.465,130.909z"/>
		<path fill="#991B1E" d="M633.062,144.141l-16.282-21.459h-0.137v14.64c0,4.521,0.477,5.073,3.395,5.178v1.298h-9.226V142.5
			c3.223-0.104,3.772-0.687,3.772-4.942v-13.914c0-3.874-0.479-4.8-3.428-4.937v-1.304h6.787l14.979,19.986h0.139v-13.508
			c0-4.523-0.479-5.073-3.392-5.175v-1.304h9.221v1.304c-3.223,0.102-3.771,0.687-3.771,4.937v20.498H633.062z"/>
	</g>
	<g>
		<path fill="#010101" d="M253.174,76.795c0,11.435,1.301,12.823,9.444,13.083v3.291h-28.07v-3.291
			c8.143-0.26,9.526-1.733,9.526-12.478V42.227c0-9.79-1.209-12.131-8.662-12.475v-3.294h26.342v3.294
			c-7.452,0.257-8.581,2.598-8.581,13.08V76.795z"/>
		<path fill="#010101" d="M326.738,94.035L285.58,39.802h-0.341v36.993c0,11.435,1.21,12.823,8.576,13.083v3.291h-23.307v-3.291
			c8.144-0.26,9.526-1.733,9.526-12.478V42.227c0-9.79-1.21-12.131-8.662-12.475v-3.294h17.156l37.861,50.51h0.35V42.832
			c0-11.435-1.22-12.822-8.58-13.08v-3.294h23.307v3.294c-8.144,0.257-9.53,1.731-9.53,12.475v51.808H326.738z"/>
		<path fill="#010101" d="M381.506,79.914l15.245-37.601c1.733-4.244,2.337-6.41,2.337-8.316c0-3.122-1.646-4.245-6.755-4.245
			v-3.294h21.056v3.294c-5.287,0.605-7.452,2.163-9.446,7.015l-23.479,57.268h-3.03l-22.355-53.976
			c-2.949-7.015-5.368-9.875-11.438-10.22v-3.38h28.247v3.38c-6.414,0-7.888,1.21-7.888,3.637c0,1.647,0.523,3.467,2.078,7.452
			L381.506,79.914z"/>
		<path fill="#010101" d="M433.396,76.795c0,11.435,1.296,12.823,9.444,13.083v3.291h-28.073v-3.291
			c8.147-0.26,9.53-1.733,9.53-12.478V42.227c0-9.79-1.21-12.131-8.662-12.475v-3.294h26.336v3.294
			c-7.451,0.257-8.575,2.598-8.575,13.08V76.795z"/>
		<path fill="#010101" d="M503.591,26.458h2.43l0.777,19.927h-3.207c-2.512-10.05-10.304-16.29-20.531-16.29
			c-14.03,0-22.352,11.437-22.352,30.324c0,18.541,8.057,28.937,22.61,28.937c11.005,0,18.366-6.062,21.492-17.761h3.549v21.573
			h-3.03l-1.998-6.845c-6.146,5.2-13.425,7.711-22.006,7.711c-19.575,0-32.227-12.909-32.227-33.094
			c0-20.966,13.516-35.349,33.183-35.349c6.929,0,12.647,1.819,19.753,6.237L503.591,26.458z"/>
		<path fill="#010101" d="M579.936,43.004h-3.553c-0.778-10.05-4.764-12.82-14.813-12.82c-8.574,0-9.789,0.691-9.789,2.684V79.22
			c0,7.453,1.387,10.311,11.172,10.658v3.291h-32.746v-3.291c9.791-0.347,11.265-3.205,11.265-10.658V32.868
			c0-1.993-1.129-2.684-8.493-2.684c-9.009,0-15.764,0.521-16.114,12.82h-3.209V26.458h65.412L579.936,43.004z"/>
		<path fill="#010101" d="M614.187,68.997h-23.134c-3.984,9.532-5.373,14.297-5.373,16.635c0,3.206,1.993,4.245,6.761,4.245v3.291
			h-21.056v-3.291c5.287-0.608,7.453-2.08,9.441-7.018l22.528-56.402h3.727l19.666,48.863c5.281,12.995,7.188,14.468,13.166,14.468
			v3.379h-28.237V89.79c6.15,0,8.057-1.039,8.057-3.726c0-2.251-0.433-3.723-1.997-7.711L614.187,68.997z M592.786,64.667h19.753
			l-9.617-25.562L592.786,64.667z"/>
	</g>
	<g>
		<path fill="#991B1E" d="M71.219,14.818v9.722c-7.691,0.74-12.678,2.045-14.97,3.924c-2.29,1.884-3.426,4.298-3.426,7.241
			c0,4.089,1.871,10.469,5.632,19.136l39.604,91.232l39.599-91.232c3.767-8.667,5.637-15.046,5.637-19.136
			c0-2.943-1.139-5.357-3.431-7.241c-2.288-1.878-7.274-3.184-14.962-3.924v-9.722h29.49C138.539,5.472,119.37,0,98.717,0
			c-20.651,0-39.82,5.472-55.669,14.818H71.219z"/>
		<path fill="#991B1E" d="M175.118,31.196c-0.669,0.643-1.304,1.325-1.894,2.056c-1.307,1.634-3.551,6.133-6.735,13.488
			l-44.291,101.904c-0.432,1.911-0.655,3.563-0.655,4.953c0,2.941,1.143,5.354,3.431,7.239c1.776,1.451,5.169,2.561,10.176,3.338
			c36.494-12.498,62.293-43.201,62.293-79.092C197.444,64.631,189.069,45.871,175.118,31.196z"/>
		<path fill="#991B1E" d="M70.278,160.836c2.298-1.885,3.437-4.297,3.437-7.239c0-2.687-0.809-6.355-2.43-10.999L29.633,46.74
			c-3.192-7.355-5.439-11.854-6.743-13.488c-0.383-0.478-0.791-0.93-1.209-1.367C8.12,46.453,0,64.949,0,85.082
			c0,35.663,25.47,66.2,61.586,78.846C65.79,163.17,68.688,162.141,70.278,160.836z"/>
	</g>
	<g>
		<path fill="#010101" d="M159.169,24.28c0,0-0.328,0.041-18.711,0.041c0,0,12.39,3.448,6.537,17.304l-45.101,105.602
			c-0.872,3.292,0.137,5.043,0.137,5.043l1.649,3.972c0,0,0.32-2.539,2.089-7.354l51.014-119.447L159.169,24.28z"/>
		<path fill="#010101" d="M86.809,159.189c0.024-0.463-0.097-1.065-0.459-1.913L32.75,31.774c-1.736-4.094,2.982-7.431,2.982-7.431
			s-8.527-0.076-18.6,0.003c0,0,7.638,1.606,11.072,8.396l0.784,1.835c0.016,0.048,0.038,0.09,0.054,0.138l0.005,0.001
			l47.337,110.85l-0.012-0.016c7.521,16.632-4.752,19.138-4.752,19.138c16.523-0.383,15.204-5.48,15.204-5.48L86.809,159.189z"/>
		<polygon fill="#010101" points="40.729,33.707 86.68,140.148 88.134,139.515 42.184,33.076 		"/>
		
			<rect x="115.039" y="66.953" transform="matrix(0.4053 -0.9142 0.9142 0.4053 26.5741 176.3397)" fill="#010101" width="67.557" height="1.585"/>
	</g>
</g>
</svg>
